<?xml version="1.0" encoding="utf-8"?>
<!-- Generator: Adobe Illustrator 18.0.0, SVG Export Plug-In . SVG Version: 6.00 Build 0)  -->
<!DOCTYPE svg PUBLIC "-//W3C//DTD SVG 1.1//EN" "http://www.w3.org/Graphics/SVG/1.1/DTD/svg11.dtd">
<svg version="1.1" id="Layer_1" xmlns="http://www.w3.org/2000/svg" xmlns:xlink="http://www.w3.org/1999/xlink" x="0px" y="0px"
	 viewBox="0 0 18 18" enable-background="new 0 0 18 18" xml:space="preserve">
<g>
	<path fill="#FFFFFF" d="M5.7,16.8c-2.4,0-4.4-2-4.4-4.4V5.7c0-2.4,2-4.4,4.4-4.4h6.7c2.4,0,4.4,2,4.4,4.4v6.7c0,2.4-2,4.4-4.4,4.4
		H5.7z"/>
	<path fill="#BE1E2D" d="M12.3,2.5c1.7,0,3.2,1.4,3.2,3.2v6.7c0,1.7-1.4,3.2-3.2,3.2H5.7c-1.7,0-3.2-1.4-3.2-3.2V5.7
		c0-1.7,1.4-3.2,3.2-3.2H12.3 M12.3,0H5.7C2.5,0,0,2.5,0,5.7v6.7C0,15.5,2.5,18,5.7,18h6.7c3.1,0,5.7-2.5,5.7-5.7V5.7
		C18,2.5,15.5,0,12.3,0L12.3,0z"/>
</g>
</svg>
